<svg width="70" height="70" viewBox="0 0 70 70" fill="none" xmlns="http://www.w3.org/2000/svg">
<path d="M18.3335 55.4167C11.4299 55.4167 5.8335 49.8861 5.8335 43.0637C5.8335 36.2414 11.4299 30.7108 18.3335 30.7108C19.1622 30.7108 19.972 30.7905 20.7556 30.9425M41.9446 23.4127C43.6823 22.8057 45.5522 22.4755 47.5002 22.4755C49.4096 22.4755 51.2441 22.7928 52.9525 23.377M20.7556 30.9425C20.0874 29.1602 19.7224 27.2325 19.7224 25.2206C19.7224 16.1241 27.1843 8.75 36.3891 8.75C44.9632 8.75 52.0251 15.1483 52.9525 23.377M20.7556 30.9425C22.4019 31.262 23.9322 31.9008 25.2779 32.7909M52.9525 23.377C59.4796 25.609 64.1668 31.7366 64.1668 38.9461C64.1668 46.8415 58.5453 53.4394 51.0418 55.044" stroke="#3F3F46" stroke-width="2" stroke-linecap="round"/>
<path d="M34.9998 46.667V64.167M34.9998 46.667L40.8332 52.5003M34.9998 46.667L29.1665 52.5003" stroke="#3F3F46" stroke-width="2" stroke-linecap="round" stroke-linejoin="round"/>
</svg>
