<svg width="20" height="20" viewBox="0 0 20 20" fill="none" xmlns="http://www.w3.org/2000/svg">
<g clip-path="url(#clip0_7002_16164)">
<path d="M14.1667 7.50195C15.9793 7.51204 16.9609 7.59242 17.6012 8.23274C18.3334 8.96497 18.3334 10.1435 18.3334 12.5005V13.3338C18.3334 15.6909 18.3334 16.8694 17.6012 17.6016C16.8689 18.3338 15.6904 18.3338 13.3334 18.3338H6.66675C4.30973 18.3338 3.13121 18.3338 2.39898 17.6016C1.66675 16.8694 1.66675 15.6909 1.66675 13.3338L1.66675 12.5005C1.66675 10.1435 1.66675 8.96497 2.39898 8.23274C3.0393 7.59242 4.02089 7.51204 5.83342 7.50195" stroke="#A1A1AA" stroke-width="1.5" stroke-linecap="round"/>
<path d="M10 12.5L10 1.66667M10 1.66667L12.5 4.58333M10 1.66667L7.5 4.58333" stroke="#A1A1AA" stroke-width="1.5" stroke-linecap="round" stroke-linejoin="round"/>
</g>
<defs>
<clipPath id="clip0_7002_16164">
<rect width="20" height="20" rx="5" fill="white"/>
</clipPath>
</defs>
</svg>
