<svg width="42" height="42" viewBox="0 0 42 42" fill="none" xmlns="http://www.w3.org/2000/svg">
<path fill-rule="evenodd" clip-rule="evenodd" d="M41.8337 20.9998C41.8337 32.5058 32.5063 41.8332 21.0003 41.8332C9.49439 41.8332 0.166992 32.5058 0.166992 20.9998C0.166992 9.4939 9.49439 0.166504 21.0003 0.166504C32.5063 0.166504 41.8337 9.4939 41.8337 20.9998ZM29.3968 14.6866C30.007 15.2968 30.007 16.2862 29.3968 16.8964L18.9802 27.313C18.37 27.9232 17.3807 27.9232 16.7705 27.313L12.6038 23.1464C11.9936 22.5362 11.9936 21.5468 12.6038 20.9366C13.214 20.3265 14.2033 20.3265 14.8135 20.9366L17.8753 23.9985L22.5312 19.3426L27.1871 14.6866C27.7973 14.0765 28.7866 14.0765 29.3968 14.6866Z" fill="#17C964"/>
</svg>
